HIERARCHY
ROOT root
{
	OFFSET 0.000000 0.000000 0.000000
	CHANNELS 6 Xposition Yposition Zposition Zrotation Yrotation Xrotation
	JOINT lhip
	{
		OFFSET 0.058581 -0.082280 -0.017664
		CHANNELS 3 Zrotation Yrotation Xrotation
		JOINT lknee
		{
			OFFSET 0.043451 -0.386469 0.008037
			CHANNELS 3 Zrotation Yrotation Xrotation
			JOINT lankle
			{
				OFFSET -0.014790 -0.426874 -0.037428
				CHANNELS 3 Zrotation Yrotation Xrotation
				JOINT ltoe
				{
					OFFSET 0.041054 -0.060286 0.122042
					CHANNELS 3 Zrotation Yrotation Xrotation
					End Site
					{
						OFFSET 0.000000 0.000000 0.000000
					}
				}
			}
		}
	}
	JOINT rhip
	{
		OFFSET -0.060310 -0.090513 -0.013543
		CHANNELS 3 Zrotation Yrotation Xrotation
		JOINT rknee
		{
			OFFSET -0.043257 -0.383688 -0.004843
			CHANNELS 3 Zrotation Yrotation Xrotation
			JOINT rankle
			{
				OFFSET 0.019056 -0.420046 -0.034562
				CHANNELS 3 Zrotation Yrotation Xrotation
				JOINT rtoe
				{
					OFFSET -0.034840 -0.062106 0.130323
					CHANNELS 3 Zrotation Yrotation Xrotation
					End Site
					{
						OFFSET 0.000000 0.000000 0.000000
					}
				}
			}
		}
	}
	JOINT lowerback
	{
		OFFSET 0.004439 0.124404 -0.038385
		CHANNELS 3 Zrotation Yrotation Xrotation
		JOINT upperback
		{
			OFFSET 0.004488 0.137956 0.026820
			CHANNELS 3 Zrotation Yrotation Xrotation
			JOINT chest
			{
				OFFSET -0.002265 0.056032 0.002855
				CHANNELS 3 Zrotation Yrotation Xrotation
				JOINT lowerneck
				{
					OFFSET -0.013390 0.211636 -0.033468
					CHANNELS 3 Zrotation Yrotation Xrotation
					JOINT upperneck
					{
						OFFSET 0.010113 0.088937 0.050410
						CHANNELS 3 Zrotation Yrotation Xrotation
						End Site
						{
							OFFSET 0.000000 0.000000 0.000000
						}
					}
				}
				JOINT lclavicle
				{
					OFFSET 0.071702 0.114000 -0.018898
					CHANNELS 3 Zrotation Yrotation Xrotation
					JOINT lshoulder
					{
						OFFSET 0.122921 0.045205 -0.019046
						CHANNELS 3 Zrotation Yrotation Xrotation
						JOINT lelbow
						{
							OFFSET 0.255332 -0.015649 -0.022946
							CHANNELS 3 Zrotation Yrotation Xrotation
							JOINT lwrist
							{
								OFFSET 0.265709 0.012698 -0.007375
								CHANNELS 3 Zrotation Yrotation Xrotation
								End Site
								{
									OFFSET 0.000000 0.000000 0.000000
								}
							}
						}
					}
				}
				JOINT rclavicle
				{
					OFFSET -0.082954 0.112472 -0.023707
					CHANNELS 3 Zrotation Yrotation Xrotation
					JOINT rshoulder
					{
						OFFSET -0.113228 0.046853 -0.008472
						CHANNELS 3 Zrotation Yrotation Xrotation
						JOINT relbow
						{
							OFFSET -0.260127 -0.014369 -0.031269
							CHANNELS 3 Zrotation Yrotation Xrotation
							JOINT rwrist
							{
								OFFSET -0.269108 0.006794 -0.006027
								CHANNELS 3 Zrotation Yrotation Xrotation
								End Site
								{
									OFFSET 0.000000 0.000000 0.000000
								}
							}
						}
					}
				}
			}
		}
	}
}
MOTION
Frames: 13
Frame Time: 0.033333
1.152462 1.176373 1.131565 -85.805897 2.895166 85.070950 0.894054 0.318067 9.202882 -2.673219 -14.923433 1.076851 4.113449 8.021323 -14.667913 0.000000 -0.000000 0.000000 4.490077 -1.462976 7.409303 4.267494 3.256290 3.837897 2.325369 -4.020374 -10.950376 0.000000 -0.000000 0.000000 -2.469830 0.944595 4.419043 2.614387 -3.489608 5.524987 1.280333 -3.031002 6.526433 5.507777 0.575072 7.563265 2.875349 -2.933794 9.337401 -25.696164 7.945694 2.852107 -61.740928 -6.711122 6.974249 10.793905 -25.476821 2.671156 -3.144088 -0.340726 -9.752917 24.268920 -6.912762 -0.442361 60.974086 1.435683 9.805781 -16.172249 24.548863 -5.990175 6.876296 -0.702436 -9.840792 
1.153314 1.176976 1.131537 -85.884377 2.848785 85.263370 0.807926 0.132648 8.910893 -2.629333 -14.809155 1.114695 3.969247 8.119169 -14.575661 0.000000 -0.000000 0.000000 4.437103 -1.367340 7.167737 4.348918 3.403173 3.750424 2.416942 -4.119614 -10.834233 0.000000 -0.000000 0.000000 -2.370612 1.027222 4.345464 2.506609 -3.351032 5.356030 1.227418 -3.026206 6.692019 5.673588 1.115117 6.574714 2.777655 -2.634283 9.203794 -25.752714 8.163650 2.580458 -61.751596 -6.444720 7.109142 10.669399 -24.494454 3.031378 -3.180765 -0.491512 -9.626768 24.457706 -7.137854 -0.662124 60.991687 1.356042 10.104451 -16.172919 24.185047 -6.012380 6.600455 -0.553892 -10.049485 
1.153352 1.177631 1.131421 -85.926864 2.801665 85.210719 0.808877 0.261832 9.018263 -2.584357 -14.902342 1.003997 3.945185 8.122370 -14.553817 0.000000 -0.000000 0.000000 4.425310 -1.383604 7.109937 4.342637 3.299900 3.973474 2.451176 -3.988839 -10.991344 0.000000 -0.000000 0.000000 -2.393295 0.984166 4.370324 2.455430 -3.321952 5.436723 1.187015 -2.908392 6.695599 5.746730 1.011198 6.840449 2.890180 -2.830823 9.216808 -25.673515 8.325547 2.702634 -61.845115 -6.183031 7.036306 10.707523 -24.069144 3.207218 -3.359123 -0.329649 -9.613161 24.525637 -7.188614 -0.598944 61.056379 1.381876 10.054891 -16.127318 24.041426 -5.852143 6.716792 -0.603952 -10.010725 
1.154190 1.178281 1.131372 -85.833287 2.758476 85.244546 0.815726 0.296467 8.840741 -2.629992 -14.978368 1.147923 4.024977 8.059013 -14.514879 0.000000 -0.000000 0.000000 4.405025 -1.473511 6.907727 4.353313 3.172303 4.179876 2.354164 -3.860921 -10.983518 0.000000 -0.000000 0.000000 -2.405718 0.990045 4.386862 2.479288 -3.324311 5.364597 1.213828 -2.894238 6.605674 5.854417 0.251111 7.694008 2.756286 -3.063343 9.136989 -25.618938 8.384042 3.060218 -61.970725 -5.985581 6.851180 10.630056 -23.415836 3.376491 -3.738335 0.000613 -9.553806 24.306401 -7.144837 -0.253054 61.289082 1.495396 9.849699 -16.147294 23.957353 -5.773266 6.877050 -0.606089 -10.063526 
1.154344 1.178630 1.131424 -85.688893 2.743587 85.189642 0.817901 0.221548 8.885906 -2.636058 -15.034384 1.153018 3.972761 8.091492 -14.506263 0.000000 -0.000000 0.000000 4.354382 -1.474751 7.124597 4.415801 3.114006 3.877952 2.403995 -3.836971 -10.833437 0.000000 -0.000000 0.000000 -2.338072 0.975923 4.388954 2.403919 -3.341248 5.484351 1.162849 -2.896903 6.674696 5.690720 0.842214 7.606986 2.836716 -2.671913 9.102649 -25.696559 8.357187 2.916992 -61.872383 -5.860914 6.820150 10.626963 -23.080967 3.307742 -3.708853 0.028299 -9.283451 24.461988 -7.127751 -0.384788 61.255595 1.505410 9.892641 -16.161624 23.983829 -5.899975 6.831819 -0.486878 -10.111456 
1.154955 1.179083 1.131528 -85.498172 2.737969 85.156574 0.838585 0.205198 8.782035 -2.628440 -15.145117 1.282012 3.910022 7.965139 -14.442483 0.000000 -0.000000 0.000000 4.321566 -1.550317 7.280093 4.533203 3.049899 3.572590 2.307256 -3.967107 -10.662605 0.000000 -0.000000 0.000000 -2.278533 1.016344 4.457841 2.426340 -3.378681 5.539428 1.148961 -2.957218 6.595114 5.752507 0.256313 7.760258 2.820162 -3.018138 8.887001 -25.842614 8.340086 3.028660 -61.706229 -5.771918 6.753008 10.623369 -23.027226 3.409713 -4.039949 0.151065 -9.325631 24.321391 -7.028747 -0.368682 61.386809 1.426764 9.868324 -16.244757 24.146694 -5.857969 6.906154 -0.724256 -10.136789 
1.155600 1.179543 1.131616 -85.442175 2.672026 85.128992 0.758012 0.109741 8.784582 -2.586644 -15.135599 1.240416 4.038451 8.044482 -14.510581 0.000000 -0.000000 0.000000 4.294980 -1.403998 7.324753 4.526005 2.942773 3.478192 2.341166 -4.045847 -10.647594 0.000000 -0.000000 0.000000 -2.296716 1.106589 4.548179 2.379272 -3.332775 5.501952 1.201481 -2.939963 6.605542 5.690574 0.501296 7.722156 2.860542 -2.785244 9.000821 -25.803330 8.261334 3.101823 -61.814936 -5.757290 6.683951 10.639163 -22.851521 2.988323 -3.936611 -0.025356 -9.561062 24.354747 -6.921880 -0.224107 61.327968 1.503226 9.959101 -16.388561 24.551287 -5.966352 6.855744 -0.623900 -10.237088 
1.156388 1.180008 1.131710 -85.332240 2.660600 85.129966 0.737403 -0.009958 8.696274 -2.563650 -15.184174 1.295321 4.018166 8.101142 -14.481970 0.000000 -0.000000 0.000000 4.368564 -1.153416 7.281714 4.495870 2.771251 3.427060 2.428798 -4.137593 -10.571277 0.000000 -0.000000 0.000000 -2.256109 1.111500 4.668524 2.358498 -3.267347 5.391517 1.188379 -2.973160 6.612644 5.564865 0.945558 7.907171 2.813750 -2.421785 9.109288 -25.757196 8.298062 3.194262 -61.833681 -5.812993 6.701678 10.661758 -23.000002 3.010988 -3.782852 0.052843 -9.557589 24.453519 -6.888458 -0.380481 61.178709 1.618987 10.065877 -16.319461 24.699083 -6.037916 6.794480 -0.624965 -10.315087 
1.157052 1.180486 1.131912 -85.126761 2.625693 85.040401 0.703795 -0.053736 8.609786 -2.587684 -15.270449 1.543273 3.907682 8.078323 -14.548676 0.000000 -0.000000 0.000000 4.426003 -0.814613 7.349800 4.454621 2.465867 3.392236 2.544423 -4.387992 -10.501259 0.000000 -0.000000 0.000000 -2.185525 1.041954 4.890151 2.339158 -3.169917 5.138837 1.151206 -3.011764 6.791737 5.660561 0.734075 7.709072 2.797497 -2.647865 9.247842 -25.895023 8.423336 2.925170 -61.596371 -5.811933 6.793088 10.430965 -23.290447 3.179574 -3.458645 0.091052 -9.234856 24.430392 -7.033986 -0.687455 61.125401 1.569179 10.217899 -16.262207 25.158585 -5.961478 6.473975 -0.631625 -10.071154 
1.157893 1.180745 1.131846 -85.324525 2.559992 85.159672 0.669016 0.163301 8.383725 -2.608947 -15.219545 1.598128 4.157602 7.992168 -14.478451 0.000000 -0.000000 0.000000 4.161795 -1.868669 6.911884 4.520911 3.083041 3.827709 2.404073 -3.767335 -10.594865 0.000000 -0.000000 0.000000 -2.180278 1.367567 4.603229 2.393230 -3.143519 5.351300 1.146829 -2.870212 6.652608 5.641250 0.165876 8.185934 2.891592 -3.019783 9.251870 -25.697333 8.091819 3.049877 -61.717759 -5.927882 6.843560 10.379495 -23.739536 3.197304 -3.435413 0.033719 -9.429831 24.152711 -6.886839 -0.369479 61.244076 1.745728 9.970441 -16.372313 25.769272 -5.946238 6.676255 -0.751902 -10.177246 
1.158607 1.181152 1.131978 -85.298309 2.537687 85.124108 0.704007 0.172615 8.341038 -2.630623 -15.098160 1.628267 4.119552 7.876498 -14.540351 0.000000 -0.000000 0.000000 4.155701 -1.872172 6.983649 4.595766 3.013524 3.725449 2.299071 -3.795545 -10.613278 0.000000 -0.000000 0.000000 -2.205522 1.395037 4.707471 2.398312 -3.097473 5.344458 1.190242 -2.757872 6.574552 5.767895 -0.170241 8.009154 2.835044 -3.204363 9.244422 -25.636020 8.088856 2.976838 -61.727951 -6.014299 6.910796 10.418083 -24.514801 3.308327 -3.295740 0.025639 -9.489389 24.015849 -6.676783 -0.259831 61.290498 1.852520 9.973361 -16.485252 26.256732 -6.111659 6.616616 -0.568149 -10.334827 
1.159132 1.181503 1.132099 -85.393479 2.474085 85.191053 0.680530 0.174134 8.335521 -2.624259 -15.016373 1.415068 4.173209 7.818271 -14.401711 0.000000 -0.000000 0.000000 4.089865 -1.996897 6.823449 4.570251 3.202848 3.789719 2.354761 -3.659349 -10.603771 0.000000 -0.000000 0.000000 -2.225680 1.470822 4.577910 2.369680 -3.031528 5.390530 1.171534 -2.684100 6.463499 5.738303 0.130165 8.281406 2.927496 -2.953599 9.148642 -25.593769 8.031845 3.014431 -61.730840 -6.050847 7.001508 10.675036 -25.292721 3.286117 -3.327343 -0.018329 -9.592067 24.005731 -6.515452 -0.035487 61.243823 2.008535 9.960499 -16.671164 26.723261 -6.274745 6.587530 -0.600402 -10.389894 
1.159679 1.181909 1.132292 -85.205201 2.439582 85.149721 0.637983 0.034368 8.348633 -2.555563 -14.966486 1.368453 4.117194 7.775457 -14.342400 0.000000 -0.000000 0.000000 4.103337 -1.866424 6.919975 4.574601 3.028039 3.611461 2.373040 -3.819795 -10.497597 0.000000 -0.000000 0.000000 -2.213003 1.468770 4.619352 2.296034 -3.015469 5.398660 1.157845 -2.707588 6.507610 5.625995 0.766321 8.043689 3.013447 -2.476557 9.162047 -25.493029 7.852716 2.962976 -61.731740 -6.235586 7.085904 10.651181 -25.805026 3.074578 -3.085524 -0.153592 -9.944107 24.107861 -6.418337 -0.088809 61.098685 2.061837 10.134368 -16.796237 27.145951 -6.356934 6.513486 -0.699946 -10.467573 
